<svg version="1.1"
     width="84"
     height="36"
     xmlns="http://www.w3.org/2000/svg"
>
    <g class="digit" id="digit_7" transform="translate(0, 0), scale(4)">
    <path id="digit_7_shadow"
          d="m1.0583 1.0583 2e-6 2.1167h1.0583v-1.0583h3.175v1.0583l2e-7 1.0583h-1.0583v1.0583h-1.0583l4e-7 3.175 1.0583 1e-7v-3.175h1.0583v-1.0583h1.0583l5e-7 -1.0583v-2.1167z"
          fill-opacity=".5" style="paint-order:stroke fill markers"/>
    <path id="digit_7_fg"
          d="m0 0 2e-6 2.1167h1.0583v-1.0583h3.175v1.0583l2e-7 1.0583h-1.0583v1.0583h-1.0583l4e-7 3.175 1.0583 1e-7v-3.175h1.0583v-1.0583h1.0583l5e-7 -1.0583v-2.1167z"
          fill="#fff" style="paint-order:stroke fill markers"/>
</g><g class="digit" id="digit_5" transform="translate(28, 0), scale(4)">
    <path id="digit_5_shadow"
          d="m1.0583 1.0583v3.175h4.2333v3.175h-3.175v-1.0583h-1.0583v1.0583h1.0583v1.0583h3.175v-1.0583h1.0583v-3.175h-1.0583v-1.0583h-3.175v-1.0583h4.2333v-1.0583h-5.2917z"
          fill-opacity=".5" style="paint-order:stroke fill markers"/>
    <path id="digit_5_fg"
          d="m0 0v3.175h4.2333v3.175h-3.175v-1.0583h-1.0583v1.0583h1.0583v1.0583h3.175v-1.0583h1.0583v-3.175h-1.0583v-1.0583h-3.175v-1.0583h4.2333v-1.0583h-5.2917z"
          fill="#fff" style="paint-order:stroke fill markers"/>
</g><g class="digit" id="digit_7" transform="translate(56, 0), scale(4)">
    <path id="digit_7_shadow"
          d="m1.0583 1.0583 2e-6 2.1167h1.0583v-1.0583h3.175v1.0583l2e-7 1.0583h-1.0583v1.0583h-1.0583l4e-7 3.175 1.0583 1e-7v-3.175h1.0583v-1.0583h1.0583l5e-7 -1.0583v-2.1167z"
          fill-opacity=".5" style="paint-order:stroke fill markers"/>
    <path id="digit_7_fg"
          d="m0 0 2e-6 2.1167h1.0583v-1.0583h3.175v1.0583l2e-7 1.0583h-1.0583v1.0583h-1.0583l4e-7 3.175 1.0583 1e-7v-3.175h1.0583v-1.0583h1.0583l5e-7 -1.0583v-2.1167z"
          fill="#fff" style="paint-order:stroke fill markers"/>
</g>
</svg>
